
<svg width="231px" height="231px" viewBox="0 0 231 231" version="1.1" xmlns="http://www.w3.org/2000/svg" xmlns:xlink="http://www.w3.org/1999/xlink">
    <g id="Symbols" stroke="none" stroke-width="1" fill="none" fill-rule="evenodd">
        <g id="david_logo_blue" fill-rule="nonzero">
            <g fill="#59487e" id="Oval">
                <circle cx="115.33" cy="115.33" r="115.33"></circle>
            </g>
            <path d="M166.94,199.08 C166.49,197.73 166.41,197.7 165.05,198.14 C163.92,198.51 162.79,198.84 161.64,199.14 C159.24848,199.692328 156.81187,200.027027 154.36,200.14 C149.511461,200.349738 144.659239,199.820344 139.97,198.57 C131.2,196.27 123.13,191.79 115.82,186.42 C110.162407,182.150639 104.766046,177.5457 99.66,172.63 C98.58,171.63 97.16,169.63 95.82,169.01 C94.29,168.33 93.64,170.54 92.92,171.67 C91.1027932,174.556259 89.0347958,177.276779 86.74,179.8 C84.5394821,182.285082 82.052126,184.500541 79.33,186.4 C76.687308,188.242797 73.6616646,189.463311 70.48,189.97 C67.2484805,190.457098 63.9450619,189.984187 60.98,188.61 C56.0638502,186.448442 52.0590813,182.634713 49.66,177.83 C46.49,171.5 48.05,164.07 51.16,158.04 C53.85,152.83 57.54,147.64 63.16,145.35 C73.16,141.28 84.16,148.83 91.66,154.65 L94.15,156.59 C94.2990306,156.345244 94.4326241,156.091416 94.55,155.83 C97.2,148.61 100.02,141.23 100.87,133.53 C101.01,132.28 100.94,132.22 99.73,131.84 C97.14,131.05 94.56,130.22 91.98,129.39 L83.84,126.77 L71.77,122.91 C70.77,122.6 69.77,122.32 68.85,122 C68.4140836,121.868069 67.9920834,121.693911 67.59,121.48 C67.3906311,121.35668 67.2637815,121.144021 67.25,120.91 C67.25,120.75 67.58,120.58 67.78,120.53 C68.0208079,120.480421 68.2691921,120.480421 68.51,120.53 L78.58,122.43 C81,122.89 83.41,123.43 85.84,123.84 C89.68,124.56 93.53,125.24 97.38,125.95 C99.8,126.4 102.22,126.88 104.64,127.34 C104.796531,127.349212 104.953469,127.349212 105.11,127.34 C105.06,126.75 104.59,126.57 104.27,126.34 C102.17,124.68 100.05,123.04 97.94,121.4 L76.08,104.4 C75.72,104.12 75.28,103.9 75.43,103.26 C76.1355557,103.144715 76.8576409,103.321626 77.43,103.75 C79.87,105.08 82.3,106.44 84.73,107.75 L117.94,126.29 C121.39,128.21 124.84,130.11 128.28,132.04 C128.949868,132.421591 129.709114,132.618305 130.48,132.61 C135.28,132.61 140.07,132.7 144.87,132.73 C146.87,132.73 148.81,132.73 150.78,132.66 C151.682427,132.537252 152.565954,132.302092 153.41,131.96 C154.103593,131.689175 154.68274,131.187718 155.05,130.54 C156.805696,127.843198 159.160134,125.588002 161.93,123.95 C165.638442,121.635252 170.312269,121.520321 174.13,123.65 C177.306688,125.116027 179.785879,127.763846 181.04,131.03 C182.331981,134.10783 182.106176,137.61336 180.43,140.5 C179.545309,141.867285 178.420525,143.063215 177.11,144.03 C175.001337,145.686436 172.709705,147.095639 170.28,148.23 C169.943896,148.428932 169.526104,148.428932 169.19,148.23 C167.71,147.42 166.19,146.63 164.71,145.87 C162.296481,144.622178 160.071193,143.039901 158.1,141.17 C157.43,140.55 156.82,139.86 156.1,139.24 C155.792874,138.955684 155.437244,138.728759 155.05,138.57 C151.687183,137.18953 148.138882,136.313406 144.52,135.97 C142.656468,135.870857 140.788189,135.907621 138.93,136.08 C136.332158,136.304541 133.758985,136.756268 131.24,137.43 C130.764963,137.572229 130.297662,137.739122 129.84,137.93 C130.143203,139.911129 130.800335,141.821555 131.78,143.57 C134.368024,148.13727 137.212576,152.554339 140.3,156.8 C141.449902,158.33198 142.825552,159.680657 144.38,160.8 C146.269452,162.220981 148.304143,163.437773 150.45,164.43 C151.004911,164.745684 151.685089,164.745684 152.24,164.43 C154.696867,163.077725 157.492967,162.466404 160.29,162.67 C165.790772,163.07207 170.4979,166.770528 172.19,172.02 C172.951711,174.234112 173.079859,176.616967 172.56,178.9 C172.135982,180.981803 171.089836,182.885789 169.56,184.36 C168.992604,184.929581 168.477223,185.548708 168.02,186.21 C167.927776,186.405233 167.870251,186.615033 167.85,186.83 C168.02,186.83 168.13,186.88 168.2,186.83 C170.928971,185.712026 173.450733,184.143531 175.66,182.19 C178.129261,179.828398 180.259503,177.136149 181.99,174.19 C184.007808,171.04286 185.776529,167.742809 187.28,164.32 C189.849169,158.66148 191.593592,152.663765 192.46,146.51 C194.66,129.74 192.7,112.16 185.6,96.65 C184.88,95.08 184.13,93.52 183.4,91.95 C180.575495,85.7613486 177.18084,79.8491592 173.26,74.29 C168.377122,67.5922276 162.898109,61.3501023 156.89,55.64 C151.162945,50.0813399 144.763302,45.2606109 137.84,41.29 C130.619511,37.1812355 122.797032,34.2351509 114.66,32.56 C107.24,31.02 98.66,29.94 91.2,31.47 C84.0421663,32.9474396 77.3110165,36.024146 71.51,40.47 C66.5424946,44.3345857 62.2595529,49.0062711 58.84,54.29 C56.1955211,58.5074156 53.8562141,62.9086547 51.84,67.46 C51.05,69.14 47.57,79.14 44.72,75.7 C44.6391758,75.6200285 44.5522463,75.5464727 44.46,75.48 C43.59,74.74 46.13,69.3 46.46,68.34 C50.72,57.34 56.1,45.82 64.06,36.9 C69.2748888,30.9218041 75.9227097,26.366051 83.38,23.66 C87.438411,22.2475217 91.6462299,21.3079769 95.92,20.86 C99.5274913,20.4278682 103.16961,20.3642065 106.79,20.67 C111.740741,21.1166162 116.630893,22.08191 121.38,23.55 C130.694114,26.3899171 139.568836,30.5092423 147.75,35.79 C152.696498,38.9829512 157.408499,42.5253066 161.85,46.39 C165.954399,49.9445626 169.816358,53.7697731 173.41,57.84 C179.085135,64.3081083 184.006721,71.4002919 188.08,78.98 C190.75938,83.8198847 193.024136,88.8779524 194.85,94.1 C195.85,96.96 196.6,99.89 197.43,102.81 C198.384529,106.38332 199.109344,110.014076 199.6,113.68 C202.73153,134.646795 198.939828,156.062888 188.8,174.68 C186.659568,178.324134 184.322793,181.849325 181.8,185.24 C180.117248,187.645203 178.142112,189.831961 175.92,191.75 C174.780099,192.7404 173.584839,193.665224 172.34,194.52 C171.34,195.18 169.84,195.72 169.34,196.82 C168.902055,197.883297 168.02767,198.706676 166.94,199.08 Z M99.04,160.74 C99.1686323,160.915894 99.3089489,161.082938 99.46,161.24 C103.86,165.24 108.01,169.24 112.77,172.86 C117.603064,176.599744 122.729659,179.943902 128.1,182.86 C137.79,187.97 149.16,191.47 160.18,189.58 C160.946848,189.533327 161.680436,189.250372 162.28,188.77 C161.65842,188.528915 161.024143,188.321941 160.38,188.15 C158.436413,187.797304 156.558091,187.149839 154.81,186.23 C152.112675,184.792751 149.970167,182.498966 148.72,179.71 C147.677245,177.374483 147.330042,174.787827 147.72,172.26 C148.027535,170.646067 147.634925,168.977472 146.64,167.67 C145.792971,166.605246 144.8706,165.602669 143.88,164.67 C142.244788,163.170878 140.470054,161.831456 138.58,160.67 C137.610572,160.020907 136.794844,159.167635 136.19,158.17 C134.78,155.98 133.38,153.78 131.88,151.65 C130.638778,149.766097 129.258253,147.977765 127.75,146.3 C125.24,143.68 122.53,141.3 119.87,138.79 C119.39196,138.376783 118.833588,138.066955 118.23,137.88 C115.09,136.88 111.94,135.88 108.79,134.83 C108.532823,134.780689 108.271832,134.753921 108.01,134.75 C105.97255,143.71202 102.968287,152.426395 99.05,160.74 L99.04,160.74 Z M90.12,164.41 C89.79,164.09 89.62,163.91 89.43,163.76 C85.4316228,160.29847 81.0054551,157.364495 76.26,155.03 C73.6161123,153.748133 70.6799435,153.189191 67.75,153.41 C58.08,154.41 53.75,166.02 58.68,173.88 C61.25,177.95 66.51,179.8 71.28,179.19 C76.35,178.53 80.65,175.57 84.09,171.96 C85.45,170.53 86.67,168.96 87.91,167.44 C88.66,166.48 89.35,165.46 90.12,164.41 L90.12,164.41 Z M158.85,165.69 C155.475517,165.52869 152.375414,167.541744 151.15,170.69 C150.247389,173.067708 150.407591,175.718309 151.59,177.97 C153.138697,181.422354 156.337988,183.849143 160.08,184.41 C163.949884,185.205099 167.828832,183.092383 169.26,179.41 C170.048201,177.230646 169.983908,174.833962 169.08,172.7 C167.364023,168.541082 163.348055,165.793108 158.85,165.7 L158.85,165.69 Z M168.85,142.9 C171.193483,142.968928 173.494741,142.266254 175.4,140.9 C177.455253,139.542623 178.77068,137.314191 178.966009,134.858915 C179.161337,132.403638 178.214789,129.995256 176.4,128.33 C172.448023,124.706786 166.51779,124.292084 162.1,127.33 C160.134267,128.679796 158.873131,130.836123 158.660384,133.211158 C158.447636,135.586194 159.305457,137.93233 161,139.61 C163.051879,141.748212 165.896709,142.942606 168.86,142.91 L168.85,142.9 Z" id="Shape" fill="#F1F3EB"></path>
            <path d="M152.22,200.29 C148.070874,200.278361 143.940422,199.733908 139.93,198.67 C131.93,196.58 124.03,192.6 115.73,186.5 C110.083171,182.236234 104.696856,177.637997 99.6,172.73 C99.25,172.4 98.87,171.98 98.47,171.53 C97.732792,170.577551 96.8279726,169.767619 95.8,169.14 C94.8,168.7 94.25,169.59 93.57,170.91 C93.41,171.21 93.26,171.5 93.11,171.74 C91.2886591,174.634839 89.2138433,177.362218 86.91,179.89 C84.7046919,182.390205 82.2067647,184.616181 79.47,186.52 C76.8045637,188.374304 73.755852,189.604726 70.55,190.12 C67.2881411,190.610713 63.953985,190.134405 60.96,188.75 C56.0058178,186.567537 51.9699085,182.722635 49.55,177.88 C45.79,170.36 48.88,162.16 51.05,157.94 C54.55,151.16 58.38,147.11 63.12,145.17 C72.79,141.17 83.52,148.08 91.79,154.49 L93.35,155.71 L94.12,156.31 L94.18,156.21 C94.2691554,156.063236 94.3460817,155.909383 94.41,155.75 L94.81,154.67 C97.32,147.84 99.92,140.79 100.73,133.49 C100.86,132.34 100.86,132.34 99.73,131.98 C97.52,131.31 95.29,130.59 93.13,129.9 L91.97,129.53 L87.41,128.06 L83.83,126.91 L71.74,123.09 L70.43,122.68 L68.81,122.18 C68.3597589,122.043759 67.9242613,121.86286 67.51,121.64 C67.2521264,121.481908 67.0935185,121.202456 67.09,120.9 C67.09,120.62 67.56,120.44 67.75,120.39 C68.0071409,120.335471 68.2728591,120.335471 68.53,120.39 L78.66,122.29 L81.8,122.91 C83.17,123.18 84.54,123.45 85.91,123.71 L91.91,124.82 L97.41,125.82 L102.02,126.7 L104.66,127.29 L104.9,127.29 C104.79356,127.045083 104.606539,126.843947 104.37,126.72 L104.16,126.57 C102.613333,125.35 101.06,124.136667 99.5,122.93 L75.86,104.48 C75.404813,104.259346 75.1637648,103.752314 75.28,103.26 L75.28,103.16 L75.37,103.16 C76.1080956,103.015988 76.8728105,103.186327 77.48,103.63 L77.54,103.63 C79.44,104.63 81.37,105.74 83.23,106.78 L118,126.11 L121.37,127.98 C123.696667,129.266667 126.03,130.56 128.37,131.86 C129.015405,132.228051 129.747069,132.417869 130.49,132.41 C133.22,132.41 135.96,132.41 138.69,132.47 L144.88,132.52 L145.56,132.52 C147.28,132.52 149.05,132.52 150.78,132.44 C151.489979,132.359077 152.186065,132.184215 152.85,131.92 L153.37,131.75 C154.028877,131.4913 154.579378,131.014906 154.93,130.4 C156.696134,127.674975 159.072114,125.398279 161.87,123.75 C165.629313,121.414171 170.358318,121.295563 174.23,123.44 C177.455487,124.916771 179.97008,127.603794 181.23,130.92 C182.531054,134.046146 182.298045,137.600465 180.6,140.53 C179.7029,141.911669 178.564814,143.120886 177.24,144.1 C175.116902,145.758728 172.808051,147.164846 170.36,148.29 C169.975798,148.509462 169.504202,148.509462 169.12,148.29 C167.34,147.29 165.96,146.6 164.64,145.94 C162.210766,144.685809 159.971783,143.09327 157.99,141.21 C157.66,140.9 157.34,140.58 156.99,140.21 C156.64,139.84 156.34,139.54 155.99,139.21 C155.697695,138.938487 155.35898,138.721708 154.99,138.57 C151.644215,137.19241 148.112325,136.319548 144.51,135.98 C142.780329,135.88175 141.045821,135.908487 139.32,136.06 L138.95,136.06 C136.358814,136.285138 133.792334,136.736865 131.28,137.41 C130.970108,137.492973 130.666099,137.596537 130.37,137.72 L130.02,137.85 C130.328618,139.764085 130.971765,141.608901 131.92,143.3 C134.504022,147.86427 137.345267,152.278049 140.43,156.52 C141.561617,158.02063 142.909628,159.34505 144.43,160.45 C146.298071,161.860115 148.309106,163.070089 150.43,164.06 C150.937418,164.352958 151.562582,164.352958 152.07,164.06 C154.555096,162.695299 157.382597,162.080474 160.21,162.29 C165.758868,162.724783 170.497292,166.46419 172.21,171.76 C172.987051,174.012521 173.115261,176.438114 172.58,178.76 C172.144861,180.878494 171.069748,182.8123 169.5,184.3 C169.055779,184.726868 168.653906,185.195719 168.3,185.7 L167.98,186.12 C167.928434,186.215814 167.89776,186.321468 167.89,186.43 L167.89,186.48 L167.98,186.48 C170.678923,185.401935 173.17715,183.877306 175.37,181.97 C177.831543,179.609039 179.951948,176.916461 181.67,173.97 C183.682439,170.831843 185.447762,167.541923 186.95,164.13 C189.513167,158.488222 191.250983,152.506902 192.11,146.37 C194.43,128.68 192.11,111.47 185.26,96.6 C184.88,95.78 184.5,94.96 184.11,94.15 C183.72,93.34 183.4,92.65 183.06,91.9 C180.293231,85.7695456 176.965744,79.9079463 173.12,74.39 C168.251386,67.6929129 162.778435,61.4567617 156.77,55.76 C151.056843,50.2207504 144.674091,45.4168899 137.77,41.46 C130.560207,37.3392418 122.743433,34.3860132 114.61,32.71 C105,30.71 97.35,30.36 91.22,31.62 C84.085554,33.1037891 77.3785647,36.1803897 71.6,40.62 C66.6581154,44.4384715 62.3921884,49.059329 58.98,54.29 C56.3353919,58.4969388 53.996052,62.888214 51.98,67.43 C51.88,67.65 51.73,68.01 51.54,68.43 C50.54,70.92 48.38,76.11 46.2,76.43 C45.5577157,76.4988711 44.9301381,76.2062582 44.57,75.67 C44.527614,75.6252606 44.4806956,75.5850449 44.43,75.55 L44.33,75.47 C43.6,74.85 44.71,71.92 46.02,68.84 C46.15,68.53 46.26,68.28 46.31,68.14 C50.05,58.49 55.43,46.14 63.94,36.65 C69.1997598,30.6863019 75.8792612,26.146167 83.36,23.45 C87.4309744,22.0314641 91.6523555,21.0885324 95.94,20.64 C99.5575607,20.2082455 103.20959,20.1445862 106.84,20.45 C111.802271,20.8845329 116.705558,21.8363672 121.47,23.29 C130.784656,26.1601423 139.658439,30.3025872 147.84,35.6 C152.794834,38.8231007 157.513472,42.3954977 161.96,46.29 C166.069866,49.8489754 169.938408,53.677429 173.54,57.75 C179.219666,64.2334754 184.147665,71.33865 188.23,78.93 C190.918182,83.7738023 193.186475,88.8389869 195.01,94.07 C195.8,96.4 196.47,98.81 197.13,101.15 L197.59,102.79 C198.542983,106.370438 199.267773,110.007749 199.76,113.68 C202.888529,134.674856 199.090099,156.117383 188.94,174.76 C187.391303,177.484045 185.674655,180.109114 183.8,182.62 C183.16,183.51 182.52,184.41 181.88,185.33 C180.188782,187.746609 178.203542,189.943473 175.97,191.87 C174.827007,192.867081 173.628419,193.798575 172.38,194.66 C172.1,194.85 171.79,195.03 171.46,195.21 C170.639968,195.556804 169.943142,196.142137 169.46,196.89 C169.020588,198.000299 168.124214,198.867522 167,199.27 L166.84,199.27 L166.79,199.12 C166.38,197.87 166.37,197.87 165.11,198.29 C163.85,198.71 162.73,199.02 161.68,199.29 C159.278446,199.842934 156.831822,200.17763 154.37,200.29 C153.66,200.29 152.94,200.29 152.22,200.29 Z M95.31,168.68 C95.5282582,168.68478 95.7430058,168.735911 95.94,168.83 C97.0125675,169.476946 97.9552999,170.317945 98.72,171.31 C99.12,171.75 99.49,172.17 99.82,172.48 C104.909299,177.401026 110.288943,182.012626 115.93,186.29 C124.19,192.36 132.07,196.29 140.02,198.41 C144.692798,199.656523 149.528472,200.18258 154.36,199.97 C156.801894,199.856152 159.228465,199.521452 161.61,198.97 C162.61,198.73 163.76,198.41 165.01,197.97 C166.26,197.53 166.62,197.58 167.06,198.86 C168.01406,198.448623 168.765784,197.675319 169.15,196.71 C169.664734,195.890071 170.418666,195.247833 171.31,194.87 C171.64,194.69 171.94,194.52 172.2,194.34 C173.437568,193.487601 174.626119,192.566141 175.76,191.58 C177.970611,189.670375 179.935634,187.493734 181.61,185.1 C182.25,184.18 182.89,183.28 183.53,182.39 C185.3975,179.888778 187.107474,177.27372 188.65,174.56 C198.764462,155.984859 202.548925,134.619143 199.43,113.7 C198.937194,110.041024 198.212401,106.417057 197.26,102.85 L196.8,101.21 C196.15,98.88 195.47,96.47 194.69,94.15 C192.872365,88.9359303 190.610739,83.8874176 187.93,79.06 C183.858271,71.4934445 178.943694,64.4117573 173.28,57.95 C169.687927,53.8878987 165.829394,50.0694547 161.73,46.52 C157.296902,42.6610118 152.595049,39.1220899 147.66,35.93 C139.503166,30.6494865 130.656297,26.5204986 121.37,23.66 C116.633145,22.1993868 111.756692,21.2375022 106.82,20.79 C103.212816,20.4883648 99.5843835,20.5520215 95.99,20.98 C91.7264038,21.4247214 87.5285275,22.3609384 83.48,23.77 C76.0540803,26.478633 69.4326237,31.0190604 64.23,36.97 C55.75,46.46 50.38,58.73 46.66,68.35 C46.6,68.5 46.5,68.74 46.36,69.06 C45.76,70.47 43.93,74.75 44.57,75.3 L44.66,75.38 C44.7292871,75.4296384 44.7929922,75.4866377 44.85,75.55 C45.1356488,75.9934468 45.6449255,76.2403688 46.17,76.19 C48.17,75.89 50.33,70.63 51.25,68.39 C51.44,67.93 51.59,67.57 51.69,67.39 C53.7049859,62.8316318 56.0443209,58.4236561 58.69,54.2 C62.1107356,48.9229393 66.3936683,44.2580244 71.36,40.4 C77.17841,35.9108598 83.9371608,32.7964328 91.13,31.29 C97.31,30.03 105.01,30.38 114.66,32.38 C122.828145,34.0606573 130.678673,37.0240121 137.92,41.16 C144.853125,45.1295686 151.262822,49.9502789 157,55.51 C163.022956,61.2188504 168.509296,67.4683903 173.39,74.18 C177.31231,79.7452703 180.707011,85.6642366 183.53,91.86 C183.87,92.61 184.23,93.36 184.53,94.1 C184.83,94.84 185.3,95.73 185.68,96.56 C192.51,111.48 194.88,128.76 192.56,146.56 C191.695638,152.728247 189.947707,158.739919 187.37,164.41 C185.862819,167.839286 184.090792,171.145955 182.07,174.3 C180.33027,177.248028 178.189857,179.940373 175.71,182.3 C173.487406,184.232758 170.955377,185.777668 168.22,186.87 C168.125456,186.898649 168.024544,186.898649 167.93,186.87 L167.79,186.87 L167.66,186.87 L167.71,186.67 C167.71,186.6 167.71,186.53 167.71,186.46 C167.724609,186.295824 167.779572,186.137804 167.87,186 L168.19,185.58 C168.558647,185.057265 168.977287,184.571643 169.44,184.13 C170.9667,182.689747 172.013962,180.815148 172.44,178.76 C172.95555,176.507382 172.830854,174.155474 172.08,171.97 C170.401317,166.792558 165.757705,163.144853 160.33,162.74 C157.55119,162.534336 154.772352,163.138733 152.33,164.48 C151.726623,164.814629 150.993377,164.814629 150.39,164.48 C148.234092,163.480998 146.189467,162.257575 144.29,160.83 C142.724887,159.709574 141.336186,158.361321 140.17,156.83 C137.086278,152.590816 134.245064,148.180424 131.66,143.62 C130.656552,141.859053 129.979034,139.931515 129.66,137.93 L129.66,137.79 L129.79,137.79 L130.26,137.61 C130.585258,137.47689 130.919402,137.366623 131.26,137.28 C133.788686,136.602121 136.371893,136.147048 138.98,135.92 L139.36,135.92 C141.102365,135.765318 142.853725,135.73858 144.6,135.84 C148.23308,136.182131 151.795241,137.061719 155.17,138.45 C155.57531,138.61619 155.94779,138.853223 156.27,139.15 C156.62,139.47 156.95,139.81 157.27,140.15 C157.59,140.49 157.89,140.79 158.22,141.09 C160.178075,142.952346 162.39004,144.527992 164.79,145.77 C166.11,146.43 167.5,147.16 169.27,148.13 C169.558442,148.306629 169.921558,148.306629 170.21,148.13 C172.627621,147.00441 174.906239,145.601667 177,143.95 C178.29243,142.99524 179.403318,141.816614 180.28,140.47 C181.923611,137.627236 182.145533,134.180047 180.88,131.15 C179.648105,127.917926 177.19504,125.299648 174.05,123.86 C170.289399,121.785331 165.702235,121.900011 162.05,124.16 C159.297232,125.78119 156.959026,128.020116 155.22,130.7 C154.832321,131.381232 154.221176,131.907594 153.49,132.19 L152.98,132.36 C152.287482,132.636076 151.560963,132.817705 150.82,132.9 C149.08,133.01 147.3,132.99 145.58,132.98 L144.9,132.98 L138.71,132.93 C135.976667,132.93 133.243333,132.91 130.51,132.87 C129.707776,132.88052 128.917267,132.676852 128.22,132.28 C125.906667,130.946667 123.573333,129.653333 121.22,128.4 L117.85,126.53 L83.08,107.2 C81.22,106.2 79.29,105.09 77.39,104.05 L77.33,104.05 C76.820804,103.682839 76.1944496,103.515573 75.57,103.58 C75.52,103.97 75.75,104.14 76.04,104.35 L76.18,104.45 L99.72,122.77 C101.273333,123.976667 102.826667,125.19 104.38,126.41 L104.58,126.55 C104.966551,126.746482 105.231949,127.120283 105.29,127.55 L105.29,127.74 L104.91,127.74 C104.806849,127.748673 104.703151,127.748673 104.6,127.74 L101.95,127.23 L97.34,126.35 L91.84,125.35 L85.84,124.24 L81.66,123.29 L78.52,122.68 L68.45,120.78 C68.2321641,120.736361 68.0078359,120.736361 67.79,120.78 C67.6306699,120.812763 67.4865742,120.897112 67.38,121.02 C67.4077642,121.178225 67.4978179,121.318709 67.63,121.41 C68.0225462,121.619369 68.4344749,121.790168 68.86,121.92 L70.47,122.42 L71.78,122.83 L83.85,126.69 L87.43,127.84 L91.99,129.31 L93.15,129.68 C95.31,130.37 97.54,131.08 99.75,131.76 C101.06,132.16 101.16,132.3 101.01,133.63 C100.2,140.97 97.6,148.05 95.08,154.89 L94.68,155.97 C94.6080882,156.147127 94.5211022,156.317754 94.42,156.48 L94.27,156.75 L94.18,156.93 L93.09,156.08 L91.53,154.86 C75.93,142.75 68.19,143.55 63.2,145.58 C58.54,147.48 54.76,151.49 51.3,158.19 C49.15,162.35 46.1,170.44 49.8,177.82 C52.1870841,182.592113 56.1663284,186.380353 61.05,188.53 C63.9840105,189.889166 67.2520673,190.358514 70.45,189.88 C73.6079573,189.383649 76.6109194,188.172887 79.23,186.34 C81.9667023,184.432241 84.4616279,182.199232 86.66,179.69 C88.9490033,177.174051 91.0104088,174.46009 92.82,171.58 C92.97,171.35 93.11,171.07 93.27,170.77 C93.76,169.84 94.34,168.71 95.31,168.71 L95.31,168.68 Z M154.04,190.18 C145.98,190.18 137.11,187.72 128.04,182.93 C122.660097,180.019322 117.526428,176.674912 112.69,172.93 C108.940011,170.012466 105.338815,166.908562 101.9,163.63 L99.37,161.3 C99.2601779,161.195727 99.1597873,161.081951 99.07,160.96 L98.94,160.79 L98.87,160.71 L98.87,160.61 C102.812359,152.274466 105.830336,143.532391 107.87,134.54 L107.87,134.39 L108.02,134.39 L108.37,134.39 C108.52857,134.390099 108.686491,134.410259 108.84,134.45 L110.16,134.87 C112.83,135.72 115.59,136.6 118.29,137.5 C118.916081,137.696125 119.494859,138.01956 119.99,138.45 L121.44,139.79 C123.59,141.79 125.82,143.79 127.87,145.97 C129.235387,147.473852 130.485588,149.078388 131.61,150.77 L132.01,151.34 C133.39,153.34 134.72,155.34 136.01,157.34 L136.34,157.85 C136.933393,158.826472 137.731797,159.662408 138.68,160.3 C140.574791,161.463634 142.355964,162.802862 144,164.3 C144.995752,165.252027 145.921491,166.274684 146.77,167.36 C147.796898,168.702705 148.200836,170.420349 147.88,172.08 C147.500535,174.575195 147.847703,177.126882 148.88,179.43 C150.112841,182.183594 152.222596,184.451581 154.88,185.88 C156.611253,186.795771 158.472996,187.439961 160.4,187.79 C160.831972,187.924754 161.253167,188.091895 161.66,188.29 L162.33,188.53 L162.61,188.62 L162.39,188.81 C161.822402,189.280639 161.12462,189.56673 160.39,189.63 L160.21,189.63 C158.173528,189.998136 156.109402,190.192171 154.04,190.21 L154.04,190.18 Z M99.25,160.68 L99.33,160.78 C99.407617,160.887498 99.4946253,160.987892 99.59,161.08 L102.12,163.41 C105.5494,166.681128 109.14057,169.778346 112.88,172.69 C117.701544,176.413411 122.818476,179.737745 128.18,182.63 C139.59,188.63 150.64,190.96 160.18,189.34 L160.36,189.34 C160.930032,189.289078 161.479137,189.100323 161.96,188.79 L161.58,188.65 C161.189222,188.498535 160.788221,188.374893 160.38,188.28 C158.418317,187.925164 156.522844,187.270855 154.76,186.34 C152.034194,184.88058 149.86819,182.559862 148.6,179.74 C147.550358,177.374609 147.203224,174.757224 147.6,172.2 C147.919142,170.635574 147.555324,169.00931 146.6,167.73 C145.759775,166.6656 144.844079,165.663013 143.86,164.73 C142.232395,163.234667 140.467985,161.895457 138.59,160.73 C137.601218,160.067182 136.768602,159.19703 136.15,158.18 L135.82,157.67 C134.54,155.67 133.22,153.67 131.82,151.67 L131.42,151.1 C130.290186,149.403833 129.033241,147.795879 127.66,146.29 C125.66,144.15 123.39,142.11 121.24,140.13 L119.79,138.79 C119.33256,138.392094 118.798149,138.092552 118.22,137.91 C115.52,137.01 112.76,136.13 110.1,135.28 L108.78,134.86 C108.650486,134.844097 108.519514,134.844097 108.39,134.86 L108.18,134.86 C106.141247,143.773941 103.143795,152.441068 99.24,160.71 L99.25,160.68 Z M161.57,184.68 C161.063892,184.679535 160.55874,184.636045 160.06,184.55 C156.258134,183.985629 153.007495,181.519367 151.44,178.01 C150.227855,175.717049 150.06384,173.012633 150.99,170.59 C152.23226,167.363597 155.39593,165.290709 158.85,165.44 L158.85,165.44 C163.444749,165.547493 167.530815,168.389632 169.23,172.66 C170.150795,174.828663 170.215118,177.265785 169.41,179.48 C168.189649,182.735999 165.035819,184.857302 161.56,184.76 L161.57,184.68 Z M158.85,165.78 C155.537303,165.639152 152.503744,167.626656 151.31,170.72 C150.423126,173.055938 150.583402,175.660429 151.75,177.87 C153.273071,181.276707 156.428939,183.670943 160.12,184.22 C163.893804,184.982516 167.675487,182.948811 169.12,179.38 C169.89564,177.239629 169.831321,174.884839 168.94,172.79 C167.291875,168.647548 163.32712,165.891512 158.87,165.79 L158.87,165.79 L158.85,165.78 Z M69.42,179.47 C64.91,179.47 60.69,177.39 58.53,173.97 C55.9745654,169.826159 55.7253499,164.6606 57.87,160.29 C59.6728613,156.354657 63.4159044,153.660426 67.72,153.2 C70.6815288,152.971656 73.6503419,153.537802 76.32,154.84 C81.22,157.05 85.75,160.51 89.53,163.6 C89.65,163.7 89.77,163.81 89.93,163.97 L90.23,164.26 L90.34,164.36 L90.25,164.48 L89.54,165.48 C89.03,166.19 88.54,166.87 88.02,167.48 L87.56,168.05 C86.49,169.38 85.38,170.76 84.19,172.05 C80.19,176.29 75.8,178.74 71.28,179.33 C70.6636502,179.416565 70.0423633,179.463329 69.42,179.47 Z M69.11,153.47 C68.6590802,153.469501 68.20845,153.492867 67.76,153.54 C63.5733978,153.989883 59.9332805,156.611679 58.18,160.44 C56.0942652,164.694744 56.3319987,169.721109 58.81,173.76 C61.2,177.54 66.2,179.64 71.25,178.99 C75.69,178.41 79.97,175.99 83.96,171.81 C85.15,170.56 86.25,169.19 87.31,167.87 L87.77,167.3 C88.29,166.65 88.77,165.98 89.28,165.3 L89.9,164.43 L89.7,164.23 C89.55,164.09 89.44,163.98 89.33,163.89 C85.56,160.81 81.05,157.37 76.19,155.18 C73.9757917,154.124398 71.5624148,153.551732 69.11,153.5 L69.11,153.47 Z M169.04,143.05 L168.85,143.05 C165.841404,143.094865 162.947382,141.897463 160.85,139.74 C159.14868,138.039822 158.281841,135.677045 158.48,133.28 C158.708095,130.843599 159.981185,128.625724 161.97,127.2 C166.445215,124.085552 172.484,124.501447 176.49,128.2 C178.324492,129.907156 179.280052,132.357893 179.085324,134.856257 C178.890596,137.354621 177.56685,139.627703 175.49,141.03 C173.612298,142.38104 171.35316,143.09906 169.04,143.08 L169.04,143.05 Z M168.61,125.46 C166.309298,125.431303 164.058522,126.131389 162.18,127.46 C160.266111,128.827312 159.040124,130.958193 158.82,133.3 C158.632743,135.598225 159.466702,137.862351 161.1,139.49 C163.134437,141.582693 165.941719,142.743952 168.86,142.7 L169.04,142.7 C171.289686,142.718251 173.486405,142.017543 175.31,140.7 C177.3105,139.362881 178.590439,137.185013 178.785266,134.786695 C178.980092,132.388377 178.068453,130.032477 176.31,128.39 C174.219619,126.456356 171.456604,125.41574 168.61,125.49 L168.61,125.46 Z" id="Shape" fill="#F1F3EB"></path>
            <path d="M110.5,109.29 C110.57,111.74 110.77,118.36 109.33,118.68 C108.762457,118.73202 108.195005,118.579518 107.73,118.25 C105.54,117.04 103.07,115.9 103.44,113.03 C103.54,112.23 103.61,111.43 103.65,110.62 C103.76,108.48 103.97,106.33 103.92,104.2 C103.865568,98.4306615 102.83083,92.7125508 100.86,87.29 C99.8229634,84.5894123 98.4809369,82.0160765 96.86,79.62 C95.71,77.91 92.13,73.39 94.54,72.19 C95.2235353,71.9105857 95.9211448,71.666923 96.63,71.46 C97.6735449,71.0588553 98.8533398,71.484774 99.4,72.46 C100.3,73.85 101.13,75.28 101.95,76.72 C105.614399,83.1824754 108.134795,90.2294357 109.4,97.55 C110.035734,101.216505 110.370184,104.928908 110.4,108.65 C110.49,108.74 110.49,108.98 110.5,109.29 Z" id="Path" fill="#F1F3EB"></path>
            <path d="M109.06,118.86 C108.56057,118.819428 108.079258,118.654407 107.66,118.38 L107.25,118.16 C105.12,117 102.92,115.8 103.25,113 C103.35,112.22 103.42,111.41 103.46,110.6 C103.46,110.01 103.53,109.43 103.56,108.84 C103.66,107.31 103.76,105.74 103.72,104.19 C103.671656,98.4233431 102.636716,92.707496 100.66,87.29 C99.6220859,84.5992599 98.280044,82.03596 96.66,79.65 L96.21,79 C95.06,77.37 93.14,74.63 93.55,73 C93.6721956,72.5545637 93.9878738,72.187496 94.41,72 C95.0637782,71.7284858 95.7313642,71.4914928 96.41,71.29 L96.51,71.29 C97.6196273,70.8335347 98.8961773,71.2590514 99.51,72.29 C100.43,73.71 101.28,75.18 102.07,76.55 C105.794483,83.0266281 108.362837,90.1022931 109.66,97.46 C110.295811,101.136585 110.630257,104.858961 110.66,108.59 C110.66,108.73 110.66,108.93 110.66,109.19 L110.66,109.29 L110.66,109.29 C110.79,113.84 110.74,118.53 109.36,118.83 C109.261303,118.850326 109.160767,118.86038 109.06,118.86 L109.06,118.86 Z M97.54,71.46 C97.2611489,71.4648163 96.9846529,71.512023 96.72,71.6 L96.62,71.6 C95.9416266,71.7945529 95.2740261,72.0248751 94.62,72.29 C94.2839976,72.4426135 94.0369022,72.7413407 93.95,73.1 C93.57,74.59 95.44,77.24 96.55,78.82 L97.01,79.47 C98.6324285,81.8793847 99.9744532,84.4661371 101.01,87.18 C102.99525,92.6301445 104.033558,98.3797297 104.08,104.18 C104.08,105.74 104.02,107.32 103.92,108.86 C103.92,109.45 103.85,110.03 103.82,110.62 C103.82,111.44 103.71,112.25 103.6,113.04 C103.27,115.61 105.37,116.76 107.4,117.87 L107.81,118.09 C108.237504,118.401927 108.762376,118.550877 109.29,118.51 C110.15,118.32 110.5,115.23 110.29,109.31 L110.29,109.21 C110.29,108.95 110.29,108.74 110.29,108.6 C110.25855,104.888931 109.924105,101.186628 109.29,97.53 C108.032131,90.2247356 105.514702,83.1935301 101.85,76.75 C101.06,75.38 100.22,73.92 99.3,72.5 C98.9482056,71.8570391 98.2729079,71.4579995 97.54,71.46 L97.54,71.46 Z" id="Shape" fill="#F1F3EB"></path>
        </g>
    </g>
</svg>